<?xml version="1.0" encoding="utf-8"?>
<!-- Generator: Adobe Illustrator 23.1.0, SVG Export Plug-In . SVG Version: 6.00 Build 0)  -->
<svg version="1.1" id="Layer_1" xmlns="http://www.w3.org/2000/svg" xmlns:xlink="http://www.w3.org/1999/xlink" x="0px" y="0px"
	 viewBox="0 0 850 850" style="enable-background:new 0 0 850 850;" xml:space="preserve">
<style type="text/css">
	.st0{fill:#BBDDE5;}
	.st1{fill:#3381AD;}
	.st2{fill:#0C7755;}
	.st3{fill:#ECC05F;}
	.st4{fill:#7B3233;}
</style>
<g>
	<path class="st0" d="M839.17,489.39c18.32-106.16-6.28-217.91-77.34-311.91c-12.24-16.19-25.78-31.88-40.79-46.89
		c-14.91-14.91-30.52-28.36-46.63-40.54C580.6,19.2,468.47-5.62,361.92,12.14L839.17,489.39"/>
	<path class="st1" d="M839.07,489.93L361.39,12.24c-58.53,9.84-115.33,32.51-166.47,67.46l575.73,575.73
		C805.96,604.53,828.95,548.09,839.07,489.93"/>
	<path class="st2" d="M718.09,718.05l1.63-1.63c19.03-19.03,35.88-39.36,50.66-60.62L194.54,79.97
		c-22.01,15.08-42.99,32.38-62.58,51.96l-1.63,1.63c-19.89,19.89-37.44,41.15-52.68,63.45l575,575
		C675.72,756.48,697.66,738.49,718.09,718.05z"/>
	<path class="st3" d="M10.23,364.15l474.3,474.3c58.89-9.28,116.14-31.54,167.74-66.19L77.39,197.38
		C42.38,248.74,19.79,305.63,10.23,364.15"/>
	<path class="st4" d="M10.13,364.69c-18.68,115.4,13.36,237.04,100.46,335.02c5.93,6.67,12.02,13.26,18.46,19.7
		c6.4,6.4,12.96,12.47,19.6,18.36c97.61,86.71,219.57,118.83,335.33,100.76L10.13,364.69"/>
</g>
</svg>
